<svg width="19" height="14" viewBox="0 0 19 14" fill="none" xmlns="http://www.w3.org/2000/svg">
<path d="M15.2592 5.89907L11.2836 1.90638C11.1759 1.80559 11.0896 1.68404 11.0296 1.549C10.9697 1.41395 10.9375 1.26817 10.9349 1.12035C10.9323 0.972525 10.9594 0.825695 11.0145 0.68861C11.0697 0.551525 11.1517 0.426997 11.2558 0.322454C11.3599 0.217912 11.4839 0.135497 11.6204 0.0801253C11.7569 0.024755 11.9031 -0.0024362 12.0503 0.000171135C12.1975 0.00277943 12.3426 0.0351338 12.4771 0.0953059C12.6116 0.155478 12.7326 0.242234 12.833 0.350398L18.6794 6.22201C18.8847 6.42844 19 6.70825 19 7C19 7.29175 18.8847 7.57156 18.6794 7.77799L12.833 13.6496C12.7326 13.7578 12.6116 13.8445 12.4771 13.9047C12.3426 13.9649 12.1975 13.9972 12.0503 13.9998C11.9031 14.0024 11.7569 13.9752 11.6204 13.9199C11.4839 13.8645 11.3599 13.7821 11.2558 13.6775C11.1517 13.573 11.0697 13.4485 11.0145 13.3114C10.9594 13.1743 10.9323 13.0275 10.9349 12.8797C10.9375 12.7318 10.9697 12.586 11.0296 12.451C11.0896 12.316 11.1759 12.1944 11.2837 12.0936L15.2592 8.10093L1.09621 8.10093C0.805476 8.10093 0.526651 7.98494 0.321072 7.77847C0.115493 7.57201 -2.93217e-07 7.29198 -3.0598e-07 7C-3.18743e-07 6.70802 0.115493 6.42799 0.321072 6.22153C0.526651 6.01506 0.805476 5.89907 1.09621 5.89907L15.2592 5.89907Z" fill="black"/>
</svg>
