<svg width="80" height="80" viewBox="0 0 80 80" fill="none" xmlns="http://www.w3.org/2000/svg">
<path fill-rule="evenodd" clip-rule="evenodd" d="M39.75 79.5C44.97 79.5 50.139 78.4718 54.9617 76.4742C59.7844 74.4766 64.1664 71.5486 67.8575 67.8575C71.5486 64.1664 74.4766 59.7844 76.4742 54.9617C78.4718 50.139 79.5 44.97 79.5 39.75C79.5 34.53 78.4718 29.361 76.4742 24.5383C74.4766 19.7156 71.5486 15.3336 67.8575 11.6425C64.1664 7.95138 59.7844 5.02341 54.9617 3.02579C50.139 1.02816 44.97 -7.77847e-08 39.75 0C29.2076 1.57093e-07 19.0971 4.18793 11.6425 11.6425C4.18793 19.0971 0 29.2076 0 39.75C0 50.2924 4.18793 60.4029 11.6425 67.8575C19.0971 75.3121 29.2076 79.5 39.75 79.5ZM38.7253 55.8267L60.8087 29.3267L54.0247 23.6733L35.033 46.4589L25.2059 36.6274L18.9608 42.8726L32.2107 56.1226L35.6293 59.5411L38.7253 55.8267Z" fill="#2C90C6"/>
</svg>
